<?xml version="1.0" encoding="UTF-8"?>
<svg id="Camada_2" data-name="Camada 2" xmlns="http://www.w3.org/2000/svg" viewBox="0 0 72.63 74.13">
  <defs>
    <style>
      .cls-1 {
        fill: #f79525;
      }

      .cls-2 {
        fill: #f7982a;
      }

      .cls-3 {
        fill: #fccb94;
      }

      .cls-4 {
        fill: #f79422;
      }

      .cls-5 {
        fill: #f79421;
      }

      .cls-6 {
        fill: #f8a03b;
      }

      .cls-7 {
        fill: #f79320;
      }
    </style>
  </defs>
  <g id="Camada_2-2" data-name="Camada 2">
    <g id="Camada_1-2" data-name="Camada 1-2">
      <g>
        <path class="cls-7" d="m25.62,62.27v-5.14s.05.02.07.02c.64.87,1.29,1.74,1.93,2.62.21.28.41.56.61.84.03.04.05.08.08.12-.04.22-.07.45-.11.73.2-.09.36-.16.52-.23h.09c.04.1.07.21.13.3,2.22,3,4.44,5.99,6.66,8.98.33.45.68.89,1.02,1.34.03.03.06.06.09.09l.06-.09c.05-.06.11-.12.16-.19l4.29-5.79c.61-.82,1.23-1.65,1.83-2.48.07-.09.2-.17.15-.32h.03c.87,1.18,1.74,2.35,2.61,3.53.13.18.22.4.33.6.02.02.03.04.05.06.16.36.06.67-.2.92-.31.3-.64.58-.98.84-.5.38-1.02.74-1.54,1.1-.41.29-.84.57-1.25.85-.54.38-1.08.76-1.62,1.14-.46.33-.92.67-1.39.98-.22.15-.47.24-.7.37-.18.1-.35.1-.53.01-.02-.02-.04-.04-.06-.05-.04-.02-.09-.04-.13-.06-.02-.02-.04-.04-.06-.06-.4-.38-.8-.77-1.09-1.37-.07.12-.1.18-.14.24-.33.44-.66.89-1.01,1.31-.18.21-.42.37-.63.56-.08.01-.16.02-.24.03-.04-.07-.08-.08-.13,0l-.45-.12v-.02s-.03-.04-.06-.05h-.07c-.31-.21-.61-.42-.92-.63-.11-.07-.23-.14-.34-.2h0c-.13-.11-.26-.22-.39-.34,0-.02-.02-.03-.04-.04-.15-.09-.3-.17-.46-.26h0c-.14-.11-.27-.22-.41-.32-.59-.42-1.18-.84-1.78-1.26-.07-.05-.15-.09-.23-.14h0c-.17-.13-.34-.26-.51-.38-.04-.02-.08-.05-.12-.07-.09-.07-.18-.14-.28-.21l-.02-.02c-.18-.13-.35-.27-.53-.41h0c-.15-.15-.29-.3-.44-.45h0s0-.08,0-.12c-.03-.06-.06-.13-.09-.19,0-.02-.02-.04-.04-.07v-.06s-.03-.09-.05-.13c0-.1,0-.21-.02-.31v-.19c0-.08,0-.17,0-.25.06-.41.13-.81.18-1.22.06-.45.04-.91.15-1.35.14-.53.18-1.08.27-1.62.09-.57.15-1.15.22-1.73.02-.14.05-.28.08-.49-.9.28-1.73.55-2.57.82l.02.03Z"/>
        <path class="cls-5" d="m9.93,37.01c-.47.65-.94,1.3-1.42,1.95-2.09,2.82-4.18,5.63-6.27,8.45-.06.08-.12.17-.2.29.13.05.23.09.34.12,3.4,1.08,6.79,2.16,10.19,3.24.06.02.12.04.18.06-.35.49-.7.98-1.06,1.46-.57.77-1.15,1.55-1.73,2.32-.15.19-.32.37-.49.54-.31.29-.67.36-1.05.16-.32-.17-.63-.35-.92-.56-1.95-1.39-3.89-2.78-5.83-4.18-.27-.19-.57-.35-.75-.66-.18-.32-.18-.66.03-.97.32-.46.64-.92.96-1.38.03-.04.05-.09.09-.15-.21-.07-.42-.12-.61-.21-.3-.13-.59-.29-.87-.44-.12-.07-.2-.18-.18-.34.03-.27.05-.54.1-.81.11-.64.39-1.23.59-1.84.48-1.47.97-2.93,1.46-4.4.07-.21.15-.42.24-.62.21-.52.59-.83,1.13-.94.64-.13,1.28-.26,1.93-.37,1.3-.23,2.6-.46,3.9-.68.08,0,.17-.02.25-.02v-.02Z"/>
        <path class="cls-4" d="m32.34,24.49c.5-.72,1-1.44,1.5-2.16.06-.08.12-.17.2-.27.1.17.19.31.3.51.19-.5.31-.98.46-1.44.03-.08.06-.15.09-.23-.02,0-.04-.02-.06-.02-.02.04-.04.08-.06.12-.24.33-.48.67-.74,1.03-1-1.81-1.97-3.59-2.97-5.4-2.6.83-5.18,1.65-7.76,2.47,0-.02-.02-.04-.03-.06.08-.12.17-.24.25-.36,1.54-2.07,3.08-4.15,4.62-6.22.05-.07.1-.14.14-.21h.38c-.08-.11-.14-.18-.19-.25v-.04s.04-.05.07-.07c.49-.65.98-1.3,1.46-1.95.02-.02,0-.06.02-.09h.08c-.07.15.06.23.13.32.77,1.05,1.55,2.09,2.32,3.14.05.06.08.13.16.26-1.37-.41-2.66-.85-4.03-1.26.82,1.48,1.59,2.9,2.37,4.31.16-.05.28-.08.4-.12.92-.29,1.83-.57,2.75-.86h.06c.06.07.13.14.18.22,2.08,2.81,4.16,5.61,6.24,8.42.04.05.07.12.12.2-1.36.48-2.7.95-4.1,1.44,1.14.36,2.22.71,3.34,1.07-.74.69-1.45,1.36-2.17,2.04-.56-1.02-1.1-2-1.64-2.98-1.01.32-1.98.62-3.02.95.17-.72.32-1.37.47-2.04.79.25,1.53.48,2.27.72.02-.02.03-.03.05-.05-.54-.99-1.09-1.98-1.67-3.03-.23.83-.44,1.58-.66,2.35-.4-.12-.77-.24-1.14-.36-.08-.02-.14-.08-.21-.12l.02.02Zm4.33,1.43c-.21-.07-.36-.12-.59-.19.09.15.13.24.18.33.13-.04.24-.08.41-.13h0Z"/>
        <path class="cls-5" d="m43.23,63.07h-.03c-.06-.1-.11-.2-.18-.29-.56-.76-1.13-1.52-1.69-2.29-.06-.08-.09-.19-.13-.29.08,0,.17.02.24.05.73.23,1.45.46,2.17.68.07.02.15.03.27.05-.06-.13-.1-.21-.15-.29-.6-1.1-1.19-2.19-1.79-3.29-.05-.1-.09-.21-.14-.32,1.23-.39,2.46-.77,3.69-1.16s2.46-.78,3.69-1.18c.08-.03.16-.04.26-.04-1.58,2.19-3.2,4.35-4.82,6.55.51.17.98.32,1.46.47,3.62,1.15,7.23,2.3,10.85,3.45.18.06.35.12.53.18h0s0,.04.01.06c0,.38,0,.75-.01,1.13-.01.34-.03.69-.05,1.03-.02.08-.04.17-.06.25-.11.31-.34.45-.65.53-.35.09-.7.08-1.05.08h-6.04c-.26,0-.52,0-.78.01,0-.08-.03-.15-.12-.06-.33,0-.58-.14-.83-.35-.28-.24-.42-.57-.59-.87-.94-1.71-1.88-3.43-2.82-5.15-.05-.09-.1-.18-.18-.3-.29.39-.55.75-.82,1.1-.07.09-.16.16-.24.24v.02Zm1.4-1.81c-.24-.07-.43-.12-.69-.19.14.25.23.43.35.65.12-.16.21-.29.33-.46h0Z"/>
        <path class="cls-7" d="m71.35,31.22s-.02.09-.02.14c-.01.02-.03.04-.04.05,0,.05-.02.09-.02.14-.01.02-.03.04-.04.05,0,.05-.02.09-.02.14-.01.02-.03.04-.04.05-.31.95-.61,1.9-.92,2.85-.1.31-.22.62-.32.93-.23.65-.69,1.01-1.37,1.12-.61.1-1.23.21-1.84.32-.91.16-1.83.33-2.74.5-.06,0-.11.05-.16.07-.03,0-.06,0-.08-.02,0-.02.02-.05.02-.06-.24-.34-.47-.67-.73-1.03-.21.28-.4.52-.57.77-.14.19-.27.4-.4.59-.02,0-.05.03-.07.04-.12,0-.23.02-.35.04-1.39.25-2.77.5-4.16.75v-9.03c0-.13,0-.25.01-.38l.11-.06c.13.15.25.3.38.45.05.07.11.13.16.2v.02c.13.16.26.33.38.49v.02s.07.1.11.14c.27.37.54.73.81,1.1.22.31.44.62.65.93.13.17.25.34.38.51.04.05.09.11.13.16v.02h.01c.07.09.14.19.21.28h0c.14.17.28.34.43.51v.02s.07.1.11.14c.27.37.54.73.81,1.1.05.07.11.13.16.2v.02c.07.08.13.16.19.24v.02c.07.08.13.16.19.23v.02c.1.14.19.27.28.41.05-.04.08-.05.09-.07.02-.03.04-.07.06-.11.05-.06.11-.12.16-.19.98-1.33,1.97-2.65,2.95-3.98.46-.63.92-1.26,1.39-1.89.03-.05.07-.1.1-.15v-.02c.07-.08.13-.16.19-.23v-.02c.05-.07.11-.13.16-.2.05-.07.11-.14.16-.21.02,0,.03-.03.03-.05.23-.3.45-.6.68-.91l.24-.34v-.02c.06-.08.12-.16.18-.23v-.02c.06-.08.12-.16.18-.24v-.02c.05-.07.11-.13.16-.2.16-.22.32-.43.49-.65.02,0,.03-.02.03-.04l.16-.21c.16-.21.33-.42.49-.63.02-.02.04-.04.06-.06.29.1.57.2.86.31.15.07.29.14.44.21.35.28.46.64.33,1.07-.05.19-.09.38-.14.58-.01.02-.03.04-.04.06,0,.05-.01.09-.02.14-.01.02-.03.04-.04.05,0,.05-.02.09-.02.14-.01.02-.03.04-.04.05,0,.05-.02.09-.02.14-.01.02-.03.04-.04.05,0,.05-.02.09-.02.14-.01.02-.03.04-.04.05,0,.05-.02.09-.02.14-.01.02-.03.04-.04.05,0,.05-.02.09-.02.14-.01.02-.03.04-.04.05,0,.05-.02.09-.02.14-.01.02-.03.04-.04.05,0,.05-.02.09-.02.14-.01.02-.03.04-.04.05,0,.05-.02.09-.02.14-.01.02-.03.04-.04.05,0,.05-.02.09-.02.14-.01.02-.03.04-.04.05,0,.05-.02.09-.02.14-.01.02-.03.04-.04.05,0,.05-.02.09-.02.14-.01.02-.03.04-.04.05,0,.05-.02.09-.02.14-.01.02-.03.04-.04.05,0,.05-.02.09-.02.14-.01.02-.03.04-.04.05,0,.05-.02.09-.02.14-.01.02-.03.04-.04.05,0,.05-.02.09-.02.14-.01.02-.03.04-.04.05,0,.05-.02.09-.02.14-.01.02-.03.04-.04.05l-.03.03Z"/>
        <path class="cls-7" d="m28.48,11.96v.04c-.07.06-.13.12-.2.19-.73-.24-1.45-.48-2.18-.71-.93-.3-1.86-.59-2.79-.88-.29-.09-.58-.16-.87-.24-.02-.01-.04-.03-.06-.04-.28-.09-.55-.18-.83-.27-.51-.17-1.03-.33-1.54-.49-.44-.14-.89-.29-1.33-.43-.51-.16-1.01-.32-1.52-.48-.39-.12-.79-.26-1.18-.37-.35-.1-.7-.2-1.08-.3,0,.17-.02.34-.02.5v10.52c-.21-.06-.43-.11-.64-.17-.02-.01-.04-.03-.06-.04-.2-.06-.39-.12-.59-.17-.25-.08-.5-.15-.75-.23-.02-.01-.04-.03-.06-.04-.15-.04-.3-.08-.44-.13-.53-.19-1.06-.38-1.58-.59-.3-.12-.53-.33-.58-.68.08-.1.08-.21,0-.31v-.26c.19-.05.09-.2.12-.31.05-.17.09-.34.14-.51.05-.07.12-.14.15-.22.52-1.55,1.04-3.1,1.55-4.66.02-.06.01-.14.02-.2,0-.05,0-.09.01-.14.02-.01.03-.03.04-.05,0-.05.02-.1.03-.15.02-.01.03-.03.04-.05,0-.05.02-.1.03-.15.02-.01.03-.03.04-.05,0-.05.02-.1.03-.15.02-.01.03-.03.04-.05,0-.05.02-.1.03-.15.02-.01.03-.03.04-.05,0-.05.02-.1.03-.14.02-.01.03-.03.04-.05,0-.05.02-.1.03-.14.02-.01.03-.03.04-.05,0-.05.02-.1.03-.15.02-.01.03-.03.04-.05.02-.03.03-.05.05-.08.03-.08.05-.17.08-.25.03-.09.05-.17.08-.26l.04-.05c.11-.15.21-.31.32-.46.02-.01.04-.03.06-.04.3-.17.61-.11.92-.05.21.04.42.11.65.17.06-.44.23-.8.67-.96.09-.01.17-.03.26-.04.35-.05.71-.04,1.06-.04h7.17c.4,0,.8.02,1.19.09.21.03.41.16.58.29.13.1.24.24.32.39.23.41.44.83.67,1.24.13.25.27.49.4.74.02.02.03.03.05.05.22.41.44.82.65,1.22.02.02.03.03.05.05.19.32.38.65.57.97v.07h-.06Z"/>
        <path class="cls-4" d="m30.1,9.86h-.08c-.05-.05-.11-.1-.15-.16-.66-.88-1.32-1.77-1.96-2.66-.16-.21-.3-.44-.41-.68-.23-.48-.09-.92.35-1.24,2.08-1.48,4.15-2.97,6.23-4.45.36-.26.72-.52,1.14-.67h.45c.32.12.52.38.74.62.08.09.17.19.25.28h.1c.12-.08.24-.18.36-.25.24-.13.5-.12.73,0,.29.14.58.3.85.49,2.06,1.45,4.11,2.91,6.16,4.37.21.15.4.31.6.47.4.34.53.78.47,1.28-.05.41-.11.82-.17,1.22-.12.89-.25,1.78-.37,2.67-.04.29-.08.58-.13.87-.02.04-.05.08-.07.11h-.25c-.05-.08-.1-.16-.16-.24-2.22-3-4.45-6-6.67-9-.45-.61-.92-1.22-1.37-1.82-.04-.1-.08-.07-.12,0-.11.13-.23.25-.33.38-2.02,2.72-4.04,5.45-6.06,8.17-.05.07-.09.14-.13.21v.03Z"/>
        <path class="cls-5" d="m14.87,18.99c.8.25,1.6.5,2.4.75.66.21,1.31.41,1.97.62-.09.04-.18.09-.28.13-1.19.38-2.38.77-3.57,1.15-.02.01-.04.03-.06.04.02.02.04.04.06.05,1.34.64,2.68,1.28,4.02,1.92.11.05.21.13.31.2-.26.34-.51.69-.77,1.03-.63.85-1.27,1.69-1.9,2.54-.28.38-.55.77-.83,1.15-.42.57-.85,1.15-1.28,1.72h-.07c0-2.8,0-5.61-.01-8.41,0,0,0-.02-.01-.03,0,0-.02,0-.05-.02-.07.02-.16.04-.25.07-3.4,1.08-6.8,2.16-10.21,3.25-.62.2-1.24.41-1.86.62-.02.01-.04.02-.07.03-.03-.01-.06-.02-.09-.03,0-.03-.02-.06-.03-.09-.03-.05-.06-.12-.1-.16-.28-.26-.41-.61-.55-.95-.15-.36-.06-.69.22-.94.22-.21.46-.4.71-.57.7-.51,1.41-1,2.11-1.5.32-.23.66-.43.98-.66.24-.17.48-.36.72-.53.51-.36,1.03-.7,1.53-1.06.19-.13.38-.24.6-.32.33-.11.65-.11.96.01.53.21,1.05.43,1.57.67.75.35,1.5.71,2.25,1.07.41.19.82.39,1.23.58.1.05.21.09.36.15v-2.48h0Zm0,2.8c.13-.05.22-.08.37-.13-.15-.07-.24-.11-.35-.17,0,.1,0,.16-.01.3h-.01Z"/>
        <path class="cls-7" d="m57.46,21.37v-13.14c.43-.12.85-.24,1.28-.35h.32c.13.06.25.12.38.18.12.17.24.34.35.51.02.05.04.1.06.15.05.1.09.2.14.3.14.46.28.92.43,1.38.51,1.56,1.03,3.11,1.55,4.66.1.31.22.61.33.91,0,.04-.01.09,0,.13.11.38.22.76.33,1.15v.25c-.02.08-.05.17-.07.25-.17.41-.48.71-.78,1.02-.9.92-1.8,1.83-2.7,2.75-.01.01-.02.04-.03.05-.02.02-.03.03-.05.05-.08.07-.16.15-.28.25.11.03.2.05.28.07.43.18.88.32,1.34.42h0c-.12.17-.23.33-.35.5v.02c-.06.08-.12.16-.18.23v.02c-.07.1-.13.19-.2.29h0c-.06.07-.11.14-.17.2v.02c-.06.07-.11.14-.17.21-.21.28-.41.55-.62.83-.03.05-.07.1-.1.14v.02c-.06.08-.12.16-.18.23v.02c-.06.07-.11.13-.17.2-.05.07-.11.14-.16.21-.02.03-.04.06-.05.08v.02c-.06.07-.12.14-.17.21-.07.08-.15.16-.22.24-.02-.04-.05-.07-.07-.11,0-.18,0-.36-.01-.54,0-.71,0-1.42-.01-2.13,0-.02,0-.04.01-.06v-.07c.44-.38.82-.82,1.27-1.27-.47-.15-.87-.27-1.28-.4h0s0-.07-.01-.1h-.04Z"/>
        <path class="cls-5" d="m71.36,47.69c.16.25.33.49.48.74.09.15.17.31.24.48.14.3.07.59-.15.82-.22.24-.47.46-.73.65-1.55,1.11-3.1,2.21-4.66,3.32-.56.4-1.12.8-1.69,1.19-.2.14-.41.26-.63.37-.29.15-.61.18-.92.07-.26-.09-.52-.19-.76-.3-.91-.42-1.81-.86-2.71-1.28-.08-.04-.18-.06-.27-.09-.02-.02-.04-.04-.06-.05-.24-.12-.48-.24-.73-.35-.09-.04-.2-.07-.3-.11-.02-.02-.04-.04-.06-.05-.3-.14-.6-.28-.9-.42-.02,0-.04-.03-.07-.04v-.53h0s.05,0,.07-.02c.23-.06.47-.12.7-.19,1.41-.45,2.82-.89,4.23-1.34,1.17-.37,2.33-.75,3.5-1.13,1.21-.39,2.42-.77,3.63-1.15.55-.17,1.1-.34,1.65-.52l.12-.06h.02Z"/>
        <path class="cls-7" d="m14.88,65.73c.23-.1.45-.21.69-.29.57-.19,1.14-.35,1.71-.53.85-.27,1.7-.54,2.55-.81,1.75-.55,3.5-1.11,5.25-1.66.18-.06.36-.08.55-.12,0,1.38,0,2.75,0,4.13,0,.33-.02.66-.05.98,0,.14-.06.29-.11.42-.13.36-.42.52-.77.56-.39.04-.79.05-1.18.05h-6.51c-.49,0-.97-.03-1.46-.05-.02-.03-.03-.06-.05-.07-.32-.12-.46-.38-.54-.69-.01-.64-.03-1.28-.04-1.92h-.03Z"/>
        <path class="cls-5" d="m1.74,32.88s-.01-.09-.02-.14c-.01-.02-.03-.04-.04-.06,0-.05-.02-.09-.02-.14-.01-.02-.03-.04-.04-.05,0-.05-.02-.09-.02-.14-.01-.02-.03-.04-.04-.05,0-.05-.02-.09-.02-.14-.01-.02-.03-.04-.04-.05,0-.05-.02-.09-.02-.14-.01-.02-.03-.03-.04-.05,0-.05-.02-.09-.02-.14-.01-.02-.03-.03-.04-.05,0-.04,0-.09-.01-.13.01-.2-.02-.38-.19-.5-.03-.13-.06-.27-.1-.39-.25-.74-.51-1.48-.77-2.21-.05-.13-.1-.26-.15-.38-.05-.26-.09-.52-.14-.78-.07-.35.07-.66.39-.86.36-.22.76-.31,1.14-.44.29-.1.59-.16.88-.24.02.02.04.04.05.06.03.05.05.09.08.14,1.6,2.15,3.19,4.3,4.79,6.46.55.74,1.08,1.48,1.63,2.23-.02.03-.04.07-.06.1-.8.25-1.6.49-2.39.74-.77.24-1.54.49-2.31.72-.18.05-.37.07-.56.08-.32.03-.57-.12-.75-.38-.16-.23-.29-.47-.36-.75-.07-.31-.2-.6-.3-.9-.01-.02-.03-.04-.04-.06,0-.04-.01-.09-.02-.13-.01-.02-.03-.04-.04-.06,0-.04-.01-.09-.02-.13l-.04-.06s-.01-.09-.02-.13c-.01-.02-.03-.04-.04-.06,0-.04-.01-.09-.02-.13-.01-.02-.03-.04-.04-.06,0-.04-.01-.09-.02-.13-.01-.02-.03-.04-.04-.06,0-.04-.01-.09-.02-.13-.01-.02-.03-.04-.04-.06,0-.04-.01-.09-.02-.13-.01-.02-.03-.04-.04-.06l-.05-.03Z"/>
        <path class="cls-7" d="m57.47,65.37v-10.88s.04-.04.05-.06c.3.09.61.17.91.27.4.13.78.29,1.18.42.35.11.7.19,1.05.3.47.15.95.3,1.41.48.43.18.73.34.71,1.09-.03.06-.06.11-.1.17-.07.28-.13.55-.2.83-.01.02-.03.04-.04.06,0,.04-.01.09-.02.13-.01.02-.03.04-.04.06,0,.04-.01.09-.02.13-.01.02-.03.04-.04.06,0,.04-.01.09-.02.13-.01.02-.03.04-.04.06,0,.04-.01.09-.02.13-.01.02-.03.04-.04.06,0,.04-.01.09-.02.13-.01.02-.03.04-.04.06,0,.04-.01.09-.02.13-.01.02-.03.04-.04.06,0,.04-.01.09-.02.13-.01.02-.03.04-.04.06,0,.04-.01.09-.02.13-.01.02-.03.04-.04.06,0,.04-.01.09-.02.13-.01.02-.03.04-.04.06,0,.04-.01.09-.02.13-.01.02-.03.04-.04.06,0,.04-.01.09-.02.13-.01.02-.03.04-.04.06,0,.04-.01.09-.02.13-.01.02-.03.04-.04.06,0,.04-.01.09-.02.13-.01.02-.03.04-.04.06,0,.04-.01.09-.02.13-.01.02-.03.04-.04.06,0,.05-.01.09-.02.14-.01.02-.03.04-.04.06,0,.05-.02.09-.02.14-.01.02-.03.04-.04.06,0,.05-.02.09-.02.14-.01.02-.03.04-.04.06,0,.05-.02.09-.02.14-.01.02-.03.04-.04.06,0,.05-.02.09-.02.14-.01.02-.03.04-.04.05,0,.05-.02.09-.02.14-.01.02-.03.04-.04.05,0,.05-.02.09-.02.14-.01.02-.03.04-.04.05,0,.05-.02.09-.02.14-.01.02-.03.04-.04.05,0,.05-.02.09-.02.14-.01.02-.03.04-.04.05,0,.05-.02.09-.02.14-.01.02-.03.04-.04.05,0,.05-.02.09-.02.14-.01.02-.03.04-.04.05,0,.05-.02.09-.02.14-.01.02-.03.04-.04.05,0,.04,0,.09-.01.13-.09.02-.06.07-.03.13-.16.47-.32.95-.49,1.42-.08.23-.18.45-.29.66-.2.37-.53.51-.93.44-.28-.05-.55-.13-.83-.2-.2-.05-.4-.11-.61-.17-.05-.02-.1-.04-.15-.06h-.07Z"/>
        <path class="cls-4" d="m14.88,65.73h0c-.17.04-.35.07-.52.11-.3.06-.6.14-.9.17-.34.03-.6-.1-.76-.43-.29-.57-.49-1.18-.69-1.79-.52-1.59-1.05-3.17-1.58-4.75-.08-.26-.21-.51-.24-.77-.06-.48-.01-.95.32-1.35.26-.3.5-.62.79-.89.53-.5,1.01-1.05,1.51-1.58.03-.03.06-.06.09-.09.57-.58,1.15-1.16,1.72-1.73.07-.07.17-.11.25-.16v13.26h.01Z"/>
        <path class="cls-4" d="m60.33,22.35h0c.24-.34.47-.68.71-1.02.42-.58.84-1.16,1.27-1.73.17-.17.34-.34.51-.51.31-.14.62-.18.94-.05.38.23.76.47,1.15.7.02.02.04.03.07.05.13.09.27.18.4.28h.02c.14.11.28.21.42.31h.02c.16.12.31.24.47.35.06.04.13.09.19.13.12.09.25.17.37.26h0c.15.11.3.21.45.32h0c.15.11.3.21.45.32h0c.16.11.31.23.47.34h.02c.14.11.28.21.42.31h.02c.49.36.98.71,1.48,1.06h0c.22.17.43.34.65.51.02.02.04.04.06.06.15.19.3.38.46.56.03.28,0,.55-.16.79-.07.12-.13.24-.2.36-.02.02-.04.04-.06.06-.05-.04-.1-.1-.16-.12-.19-.07-.38-.12-.57-.18l-.75-.23c-.22-.07-.43-.14-.65-.21l-.89-.27c-.19-.06-.38-.12-.57-.19-.23-.07-.46-.15-.69-.22-.22-.07-.43-.14-.65-.21-.3-.09-.59-.18-.89-.27l-.5-.17c-.3-.09-.6-.19-.9-.28-.19-.06-.38-.12-.57-.19-.28-.09-.55-.17-.83-.26-.19-.06-.38-.12-.57-.19-.28-.09-.55-.17-.83-.26-.19-.08-.38-.15-.57-.23v.02Z"/>
        <path class="cls-4" d="m71.36,47.69l-.12.06c.08-.17-.06-.26-.14-.36-.63-.85-1.26-1.7-1.89-2.55-1.41-1.91-2.83-3.81-4.24-5.72-.06-.08-.11-.17-.19-.29.26-.09.5-.17.73-.25.83-.26,1.66-.52,2.49-.78.18-.06.37-.09.56-.12.51-.07.83.1,1.04.58.18.44.36.88.51,1.32.41,1.22.81,2.44,1.21,3.65.29.86.58,1.72.86,2.59.09.28.13.58.17.87.04.3-.11.54-.36.69-.2.12-.42.2-.63.3h0Z"/>
        <path class="cls-5" d="m57.47,8.24v.03c-.1.02-.21.03-.31.07-3.31,1.05-6.61,2.1-9.92,3.16-.15.05-.31.08-.46.12,0-.11.02-.23.03-.35v-2.67c0-.33.05-.65.1-.98.06-.38.32-.58.67-.66.21-.05.44-.08.66-.08h7.49c.33,0,.66.03.98.08.39.06.61.32.68.7.04.2.05.4.07.6v-.02Z"/>
        <path class="cls-4" d="m57.47,52.6v.03s.01.06.02.09c0,.53-.01,1.06-.02,1.59-.02.02-.04.04-.05.05-.98-.31-1.95-.61-2.93-.92-.16-.05-.32-.1-.55-.18.98-.31,1.9-.61,2.87-.92-.09-.05-.12-.08-.16-.1-1.25-.59-2.5-1.18-3.76-1.77-.04-.02-.08-.03-.12-.04.05-.1.07-.21.14-.3.82-1.12,1.65-2.23,2.48-3.35.66-.88,1.32-1.76,1.98-2.65h.11v7.5c0,.13,0,.25.01.38,0,.03-.01.06-.02.08h0c-.19.07-.38.14-.57.21v.07c.19.07.38.15.57.22h0Z"/>
        <path class="cls-4" d="m60.32,40.16c.18-.26.36-.52.54-.78.37-.5.74-1,1.11-1.5.02,0,.05-.03.07-.04.07,0,.15-.02.22-.03.49-.08.98-.16,1.47-.25.03,0,.06,0,.08.02.31.4.61.81.94,1.23-.11.05-.19.09-.28.12-1.31.42-2.61.83-3.92,1.25-.03,0-.06,0-.09,0-.05,0-.1-.02-.14-.03h0Z"/>
        <path class="cls-1" d="m10.28,36.37c-.39-.53-.79-1.06-1.18-1.6v-.09c.9-.29,1.79-.57,2.69-.85.18-.06.36-.09.55-.13-.03.07-.06.16-.1.22-.12.17-.25.34-.38.51-.47.63-.94,1.25-1.41,1.88-.05.02-.11.04-.16.06h-.01Z"/>
        <path class="cls-4" d="m14.86,48.39c0,.71,0,1.43.01,2.14v1.23c-.08-.02-.17-.02-.24-.05-.63-.19-1.25-.39-1.87-.59.65-.88,1.31-1.77,1.96-2.65.02-.03.06-.06.09-.08h.05Z"/>
        <path class="cls-1" d="m57.57,41.09c.27-.08.55-.15.82-.23.48-.15.96-.31,1.44-.46.08-.02.17,0,.25-.02-.85,1.17-1.69,2.34-2.54,3.5h-.07v-2.69h0s.07-.06.1-.08v-.02Z"/>
        <path class="cls-4" d="m45.2,12.14s.05-.08.07-.11c.16-.02.33-.02.49-.07.35-.1.69-.23,1.03-.35,0,.39.02.78.02,1.17v1.75s-.06-.01-.09-.02c-.46-.62-.93-1.23-1.39-1.85-.06-.11-.12-.22-.08-.36,0-.05-.03-.11-.05-.17h0Z"/>
        <path class="cls-4" d="m12.16,10.44c0,.07,0,.14-.02.2-.51,1.55-1.03,3.11-1.55,4.66-.03.08-.1.15-.15.22.19-.58.37-1.16.56-1.74.28-.83.56-1.66.84-2.5.1-.28.21-.56.32-.84Z"/>
        <path class="cls-6" d="m10.28,36.37s.11-.04.16-.06c-.06.11-.08.21.01.31.06.07.11.15.16.23h0c-.21.05-.41.1-.62.15.06-.11.11-.22.17-.32s.15-.18.1-.31h.02Z"/>
        <path class="cls-6" d="m14.88,51.79c.16.05.31.1.47.15-.15.15-.31.3-.46.44v-.6h-.01Z"/>
        <path class="cls-6" d="m1.14,31.16s.02-.04.02-.07c.18.13.2.31.19.5-.07-.15-.14-.29-.22-.44h0Z"/>
        <path class="cls-4" d="m10.18,16.61c.08.1.08.21,0,.31-.1-.1-.1-.21,0-.31Z"/>
        <path class="cls-4" d="m10.3,16.04c-.03.11.07.26-.12.31.04-.1.08-.21.12-.31Z"/>
        <path class="cls-4" d="m12.78,8.59c-.03.08-.05.17-.08.25-.05-.11,0-.18.08-.25Z"/>
        <path class="cls-2" d="m9.09,34.69v.09c-.06,0-.13,0-.19,0,.02-.03.04-.07.06-.1.04,0,.08.02.13.03h0Z"/>
        <path class="cls-2" d="m48.7,68.41c.09-.09.11-.01.12.06-.04-.02-.08-.04-.12-.06Z"/>
        <path class="cls-2" d="m60.32,40.16s.1.02.14.03c-.08.02-.15.04-.23.07.03-.03.05-.07.08-.1h.01Z"/>
        <path class="cls-6" d="m57.41,44.01h.06v.13h-.11s.04-.08.06-.12h0Z"/>
        <path class="cls-6" d="m57.53,54.43s-.04.04-.05.06c0-.03,0-.06-.01-.09.02,0,.04.02.07.03h0Z"/>
        <path class="cls-6" d="m57.41,54.35s.04-.04.05-.05c0,.03,0,.06.01.1-.02,0-.04-.03-.07-.04h0Z"/>
        <path class="cls-2" d="m59.51,53.6s.04.04.06.05c-.02-.02-.04-.04-.06-.05Z"/>
        <path class="cls-2" d="m58.43,53.09s.04.04.06.05c-.02-.02-.04-.04-.06-.05Z"/>
        <path class="cls-6" d="m2.19,34.21s.03.04.04.06c-.01-.02-.03-.04-.04-.06Z"/>
        <path class="cls-6" d="m2.12,34.02s.03.04.04.06c-.01-.02-.03-.04-.04-.06Z"/>
        <path class="cls-6" d="m2.06,33.83l.04.06s-.03-.04-.04-.06Z"/>
        <path class="cls-6" d="m2,33.64s.03.04.04.06c-.01-.02-.03-.04-.04-.06Z"/>
        <path class="cls-6" d="m1.93,33.45s.03.04.04.06c-.01-.02-.03-.04-.04-.06Z"/>
        <path class="cls-6" d="m1.87,33.26s.03.04.04.06c-.01-.02-.03-.04-.04-.06Z"/>
        <path class="cls-6" d="m1.81,33.07s.03.04.04.06c-.01-.02-.03-.04-.04-.06Z"/>
        <path class="cls-6" d="m1.74,32.88s.03.04.04.06c-.01-.02-.03-.04-.04-.06Z"/>
        <path class="cls-6" d="m1.68,32.69s.03.04.04.06c-.01-.02-.03-.04-.04-.06Z"/>
        <path class="cls-6" d="m1.62,32.5s.03.04.04.05c-.01-.02-.03-.04-.04-.05Z"/>
        <path class="cls-6" d="m1.56,32.31s.03.04.04.05c-.01-.02-.03-.04-.04-.05Z"/>
        <path class="cls-6" d="m1.49,32.11s.03.04.04.05c-.01-.02-.03-.04-.04-.05Z"/>
        <path class="cls-6" d="m1.43,31.92s.03.03.04.05c-.01-.02-.03-.03-.04-.05Z"/>
        <path class="cls-6" d="m1.37,31.73s.03.03.04.05c-.01-.02-.03-.03-.04-.05Z"/>
        <path class="cls-6" d="m27.34,68.79h-.06s.04-.04.06-.06c0,.02,0,.04,0,.06Z"/>
        <path class="cls-2" d="m37.77,73.31s.04.04.06.06c-.02-.02-.04-.04-.06-.06Z"/>
        <path class="cls-2" d="m37.96,73.44s.04.04.06.05c-.02-.02-.04-.04-.06-.05Z"/>
        <path class="cls-2" d="m34.02,73.88l.06.05-.06-.05Z"/>
        <path class="cls-1" d="m59.06,21.62h-.06s.03-.03.05-.05c0,.02.01.04,0,.05h0Z"/>
        <path class="cls-4" d="m14.18,18.76s.04.03.06.04c-.02-.01-.04-.03-.06-.04Z"/>
        <path class="cls-4" d="m12.78,18.32s.04.03.06.04c-.02-.01-.04-.03-.06-.04Z"/>
        <path class="cls-4" d="m12.21,10.26s-.02.03-.04.05c.01-.02.02-.03.04-.05Z"/>
        <path class="cls-4" d="m12.28,10.07s-.02.03-.04.05c.01-.02.02-.03.04-.05Z"/>
        <path class="cls-4" d="m12.34,9.88s-.02.03-.04.05c.01-.02.02-.03.04-.05Z"/>
        <path class="cls-4" d="m12.4,9.69s-.02.03-.04.05c.01-.02.02-.03.04-.05Z"/>
        <path class="cls-4" d="m12.47,9.49s-.02.03-.04.05c.01-.02.03-.03.04-.05Z"/>
        <path class="cls-4" d="m12.53,9.3s-.02.03-.04.05c.01-.02.03-.03.04-.05Z"/>
        <path class="cls-4" d="m12.59,9.11s-.02.03-.04.05c.01-.02.03-.03.04-.05Z"/>
        <path class="cls-4" d="m12.66,8.92s-.02.03-.04.05c.01-.02.03-.03.04-.05Z"/>
        <path class="cls-4" d="m12.91,8.29s-.03.03-.04.05c.01-.02.03-.03.04-.05Z"/>
        <path class="cls-4" d="m13.29,7.78s-.04.03-.06.04c.02-.01.04-.03.06-.04Z"/>
        <path class="cls-4" d="m33.89,42.73c-.58.05-1.15.11-1.73.16-.44.04-.88.06-1.32.1h0c.07-.54.15-1.09.22-1.63.06-.4.12-.81.18-1.24.59.31,1.16.61,1.72.91.02-.02.03-.04.05-.05-.48-.89-.96-1.78-1.51-2.64-.09.58-.17,1.15-.26,1.76-.11-.05-.18-.08-.24-.11-.72-.42-1.45-.83-2.17-1.25-.11-.06-.23-.11-.34-.16h0l2.07-2.07c.33.55.59,1.11.94,1.62.16-.96.3-1.91.42-2.85,0-.04-.03-.1-.05-.14.04-.04.07-.08.11-.12.04-.05.09-.1.13-.15.07-.08.14-.16.21-.23.61-.6,1.21-1.2,1.82-1.8.04-.02.08-.04.12-.05.1-.02.21-.03.31-.05.91-.16,1.83-.31,2.74-.47h.15c.4.19.8.38,1.2.58.21.1.42.22.63.32.35.17.7.33,1.05.5.04,0,.08.02.13.04,0,.04,0,.09,0,.12.43.8.87,1.6,1.31,2.4.03.05.06.1.13.21.1-.67.19-1.27.27-1.87h0s.1,0,.15.04c.86.41,1.71.83,2.57,1.25.05.03.09.08.14.12-.75.76-1.49,1.51-2.26,2.29-.32-.57-.53-1.15-.88-1.72-.15,1.04-.3,2.03-.45,3.05.46-.44.89-.85,1.33-1.27.05.09.1.19.14.28.3.67.59,1.33.89,2,.07.15.12.31.18.47h0s-.08.03-.12.04c-.94.17-1.89.34-2.83.51.13-.61.27-1.22.34-1.84-.02,0-.04-.02-.06-.03-.7.71-1.41,1.42-2.11,2.12,0,.02.02.04.03.05.6-.11,1.2-.21,1.8-.32-.23.98-.45,1.97-.68,2.95-.34-.16-.69-.31-1.03-.47-.47-.22-.93-.43-1.4-.66-.09-.04-.16-.12-.25-.18.47-.38.9-.8,1.34-1.22,0-.02-.02-.04-.03-.06-.99.17-1.98.33-2.97.5v.06c.52.24,1.05.48,1.57.72-.02.05-.03.13-.06.16-.71.63-1.43,1.25-2.17,1.9-.08-.14-.14-.24-.2-.35-.35-.64-.69-1.28-1.04-1.92-.06-.1-.12-.2-.18-.29.31-.04.63-.08.94-.13.32-.04.63-.09.95-.13v-.05c-.89-.43-1.78-.85-2.67-1.28.19.46.41.86.63,1.27.05.1.07.21.11.32v-.02Z"/>
        <path class="cls-4" d="m28.93,56.27c-1.1-.35-2.21-.7-3.31-1.05v-.03c0-.09,0-.19,0-.28v-10.37c0-.09,0-.19,0-.28.78.25,1.57.5,2.35.75.78.24,1.54.51,2.35.67-.61-.82-1.21-1.64-1.85-2.5.83-.06,1.6-.12,2.36-.18h0c-.12.86-.25,1.71-.37,2.57,0,.09.04.2.06.29-.12,0-.12.09-.13.18-.08.57-.16,1.13-.24,1.7-.08.59-.16,1.19-.26,1.86.74-.56,1.43-1.08,2.14-1.62-.07-.1-.13-.19-.19-.27-.4-.54-.8-1.07-1.19-1.61-.05-.07-.09-.16-.13-.24.05,0,.11,0,.16,0,.94.3,1.87.6,2.87.91-.52.41-1,.79-1.51,1.19.26.35.51.68.77,1.04,1.26-.4,2.51-.79,3.75-1.19h.21s.02.1.05.15c.54,1,1.09,2,1.64,3.01.02.04.06.08.11.15.04-.14.07-.23.1-.33.21-.7.42-1.39.63-2.09l.06-.06c.38.11.76.22,1.18.34-.6.86-1.18,1.68-1.78,2.53-.07-.11-.13-.19-.21-.32-.1.33-.19.62-.28.92.02,0,.04.02.06.03.14-.19.28-.38.43-.6.29.53.56,1.03.84,1.53.69,1.27,1.38,2.54,2.07,3.82.04.07.09.14.13.21-.8.25-1.59.51-2.39.76h-.03s-.08-.1-.12-.15c-2.09-2.81-4.17-5.63-6.26-8.44-.07-.09-.14-.18-.22-.28-.99.34-1.96.67-2.93,1.01v-.38c-.29.21-.53.39-.78.57,0,.02.02.04.03.06l.72-.21c-.03.24-.06.48-.1.71-.16,1.13-.32,2.26-.48,3.39-.1.71-.21,1.42-.32,2.13h0Z"/>
        <path class="cls-4" d="m46.91,47.66c.84.39,1.69.78,2.53,1.18.98.46,1.97.93,2.95,1.4.1.05.19.12.28.19-.48.64-.96,1.29-1.46,1.97.89.29,1.75.56,2.67.86-.14.05-.22.08-.3.11-1.21.39-2.41.77-3.62,1.15-.09.03-.18.05-.28.07-.01,0-.02-.03-.04-.04.33-.46.67-.93,1-1.39.17-.24.35-.48.56-.76-1.79-.59-3.56-1.14-5.32-1.7-1.76-.57-3.53-1.12-5.32-1.69.06-.09.1-.17.16-.24.66-.89,1.31-1.77,1.97-2.65.06-.08.11-.18.16-.27.06,0,.13-.02.19-.03.55.26,1.1.53,1.66.79.56.26,1.13.52,1.7.78.02,0,.04.02.06.03v-.04c-.26-.82-.58-1.62-.89-2.43-.84.27-1.65.53-2.47.78h-.07c.02-.06.04-.12.07-.17.55-.75,1.11-1.49,1.66-2.24.03-.04.06-.07.13-.14.24.6.46,1.16.69,1.74.44-.12.85-.24,1.26-.36,0,.24-.03.48-.02.72,0,.7.04,1.41.06,2.11,0,.06,0,.12.02.19-.11-.02-.22-.04-.38-.08.12.34.23.65.34.95.02,0,.04,0,.06,0v-.78h0Z"/>
        <path class="cls-1" d="m36.54,47.72c-.98-.31-1.96-.63-2.99-.96.61-.5,1.19-.98,1.81-1.48.45.82.88,1.61,1.31,2.4-.04,0-.08.02-.12.03h-.01Z"/>
        <path class="cls-1" d="m40.37,44.54c.74.35,1.48.71,2.22,1.06.08.04.16.07.22.12.03.02.03.09.05.13-.1.02-.21.03-.3.06-.78.25-1.57.5-2.35.74-.11.03-.21.06-.37.1.19-.77.36-1.49.54-2.21h-.01Z"/>
        <path class="cls-1" d="m39.35,48.64l-.06.06c.02-.15-.11-.14-.18-.16-.76-.25-1.53-.49-2.29-.73,0-.02,0-.05-.02-.07.98-.32,1.97-.64,2.99-.97-.03.13-.04.22-.06.31-.11.41-.23.81-.34,1.22-.03.11-.03.23-.04.34Z"/>
        <path class="cls-3" d="m36.79,47.74s0,.05.02.07c-.02,0-.03,0-.05,0h-.21s0-.06,0-.09c.04,0,.08-.02.12-.03.04.02.09.03.13.05Z"/>
        <path class="cls-4" d="m49.68,54.59h-.08s.03-.03.04-.04c.01,0,.03.03.04.04Z"/>
        <path class="cls-4" d="m46.8,14.77c.14-.07.16.06.21.13.29.39.58.78.87,1.17.68.92,1.36,1.84,2.04,2.75.05.07.1.15.2.3-1.13-.36-2.2-.69-3.29-1.04,0,.15-.02.25-.02.35v10.26c0,.11,0,.21.02.32-.11-.02-.23-.02-.34-.05-.85-.24-1.7-.49-2.54-.73-.11-.03-.22-.04-.33-.06,0-.01,0-.03-.02-.04,0,0-.02,0-.03.01,0,.01.03.02.04.03.05.09.1.18.16.26.61.82,1.21,1.65,1.82,2.47-.04,0-.08.02-.12.03-.86.12-1.72.23-2.58.35-.08.01-.16,0-.25,0,0-.13,0-.22.02-.32.07-.52.14-1.05.22-1.57.07-.48.14-.96.21-1.44.11.03.21.06.32.1,0-.02.02-.04.03-.06-.09-.12-.18-.23-.27-.35-.02,0-.04.02-.06.03,0,.08,0,.16-.02.24-.08-.01-.17-.01-.24-.04-.31-.09-.62-.19-.94-.29-.6-.19-1.2-.38-1.85-.59.11-.1.19-.16.26-.23.43-.38.87-.76,1.3-1.15.07.08.14.15.21.23.4.52.79,1.04,1.18,1.57.03.03.06.06.09.1,0-.03.02-.07.03-.1.15-1.08.31-2.17.47-3.31-.13.09-.22.15-.3.21-.47.37-.94.75-1.42,1.12-.08.06-.18.1-.27.16-.26-.36-.52-.73-.8-1.12.97-.34,1.89-.67,2.85-1.02-.02.22-.04.39-.06.63.45-.35.85-.66,1.26-.98,0-.02.03-.04.04-.06-.03,0-.06,0-.08.01-.36.12-.73.24-1.14.37.26-2.06.57-4.06.82-6.07-2.61-.83-5.19-1.65-7.83-2.49.14-.05.21-.08.28-.1,1.73-.55,3.46-1.1,5.19-1.65.93-.3,1.85-.6,2.77-.9.18.1.29.24.26.46-.02.13-.05.25-.07.38-.14,1.02-.28,2.03-.42,3.05-.06.42-.11.83-.17,1.27.75.24,1.49.47,2.26.72v-.73c0-.86,0-1.72-.02-2.57l.05-.02Z"/>
        <path class="cls-4" d="m46.85,29.05c.83.24,1.67.47,2.5.71.37.1.73.21,1.1.32.06.02.11.04.2.08-.13.14-.24.27-.38.42h1.71v-.05c-.41-.12-.83-.25-1.28-.38.07-.08.11-.15.17-.2,1.3-1.33,2.6-2.67,3.91-4,.08-.08.18-.13.27-.2.4.55.81,1.1,1.21,1.66.06.08.09.18.13.27-.06.06-.12.12-.17.19-1.11,1.5-2.22,2.99-3.33,4.49-.38.51-.77,1.01-1.14,1.52-.3.4-.58.8-.88,1.2-.11.15-.22.3-.34.45-.04.05-.09.11-.13.16-.06.08-.12.16-.19.24-.14.17-.27.35-.41.52h0c-.78-.99-1.56-1.97-2.35-2.97-.23.2-.43.37-.63.53h-.02v-.97c0-.14.03-.28.04-.43.2.26.4.53.62.82.91-.94,1.8-1.85,2.69-2.76-.01-.02-.02-.05-.03-.07-1.1.06-2.2.12-3.32.18v-1.52c0-.07.03-.14.04-.21h.01Z"/>
        <path class="cls-4" d="m57.47,23.14v.07s-.04.04-.07.06c-.04.03-.09.06-.12.1l-2.16,2.22s-.04.07-.06.1c-.06-.06-.12-.11-.17-.18-1.5-2.02-3-4.05-4.5-6.07-.05-.07-.09-.14-.19-.28.2.05.32.08.45.12,2.21.7,4.41,1.4,6.62,2.11.05.02.1.02.15.03.02.01.04.03.07.04h0v1.67h-.02Z"/>
        <path class="cls-3" d="m46.79,14.6s-.05-.06-.07-.09c.03,0,.06.01.09.02,0,.02,0,.05-.02.07Z"/>
        <path class="cls-4" d="m26.86,29c-.18.07-.36.15-.55.21-.27.09-.54.15-.81.23-.04-.95-.08-1.9-.12-2.85.04-.01.09-.02.13-.04.14.04.26.17.44.15-.18-.5-.35-.98-.51-1.46l-.06-.21s-.05.01-.07.02c0,.07.03.13.04.2v1.22c-.1-.04-.17-.07-.25-.1-.44-.21-.87-.42-1.31-.62-.64-.3-1.28-.59-1.92-.88-.02-.02-.04-.04-.06-.05-.05-.02-.1-.03-.14-.05-.38-.18-.75-.36-1.13-.54-.02-.02-.04-.04-.06-.05-.05-.02-.11-.04-.16-.06-.18-.08-.36-.17-.54-.25.03-.07.04-.14.08-.2.12-.17.25-.34.38-.51.48-.64.96-1.28,1.44-1.91.03-.02.05-.03.08-.05,2.31.73,4.61,1.45,6.92,2.18,1.14.36,2.27.72,3.41,1.08.07.02.14.03.21.04-.04.09-.07.2-.13.28-.69,1-1.39,2-2.08,3-.05.08-.1.16-.12.29,1.07-.34,2.14-.68,3.26-1.03-.18,1-.35,1.96-.53,2.95-1.06-.5-2.08-.99-3.11-1.48.07-.12.12-.22.18-.32,0-.01,0-.02,0-.04v.04c-.19-.04-.34.05-.52.14.11.06.19.11.31.18-.6.81-1.2,1.62-1.82,2.46-.07-.14-.12-.23-.16-.32-.2-.45-.4-.91-.6-1.36-.04-.08-.04-.18-.06-.27.04,0,.09,0,.13-.01.67-.21,1.33-.42,1.99-.63.03,0,.05-.03.11-.07-.37-.17-.7-.34-1.04-.5s-.68-.33-1.03-.49c-.34-.15-.65-.35-1.08-.48.32.78.6,1.48.89,2.19l-.04-.03Z"/>
        <path class="cls-1" d="m21.67,21.23c-.03-.16-.17-.14-.27-.18-.59-.19-1.18-.38-1.77-.57-.1-.03-.19-.08-.28-.13,1.01-.32,2.03-.64,3.04-.96.18-.06.36-.11.54-.16.03.03.06.05.09.08-.4.56-.79,1.11-1.19,1.67-.04.06-.06.13-.08.19-.03.02-.05.03-.08.05h0Z"/>
        <path class="cls-3" d="m34.77,21s.04-.08.06-.12c.02,0,.04.02.06.02-.03.08-.06.15-.09.23,0-.04-.02-.08-.03-.12h0Z"/>
        <path class="cls-1" d="m22.93,19.24h.16s-.05.05-.07.08c-.03-.03-.06-.05-.09-.08Z"/>
        <path class="cls-2" d="m22.38,10.31s.04.03.06.04c-.02-.01-.04-.03-.06-.04Z"/>
        <path class="cls-7" d="m25.56,31.6c.02.69.03,1.38.05,2.15.12-.15.19-.23.26-.32.54-.73,1.08-1.46,1.62-2.19.04-.06.1-.11.14-.16h.11c.12.24.25.49.37.73.31.61.62,1.22.92,1.83-.68.12-1.36.25-2.05.36-.46.08-.92.16-1.37.25h0c0-.12,0-.25-.02-.43-.17.17-.29.31-.36.5h-.08l-.06.06h0c-.15,0-.31,0-.46.02-.64.1-1.27.21-1.91.32-.06,0-.12-.02-.18-.03-.21-.13-.41-.27-.62-.4-.05-.02-.1-.03-.14-.05v-.04h-.04s.02.02.04.03l.08.11c.1.15.2.29.32.47-.35.07-.66.13-.98.19-.45.08-.89.16-1.34.22-.56.08-1.11.23-1.68.27-.41.03-.81.16-1.22.23-.31.05-.63.06-.94.12-.33.06-.65.15-.98.23h-.13s-.04-.04-.06-.05v-.53c0-.86,0-1.72-.01-2.58,0-.03.01-.07.02-.1h0s.05-.02.07-.03c.93-.29,1.85-.59,2.78-.88.79-.24,1.59-.47,2.38-.72.6-.19,1.19-.41,1.8-.6,1.12-.36,2.25-.71,3.38-1.06.07-.02.14-.02.22-.03.02.65.05,1.31.07,1.96v.15Z"/>
        <path class="cls-7" d="m19.08,48.16c-.06-.04-.12-.08-.17-.13-.61-.82-1.22-1.64-1.83-2.47-.02-.02-.03-.06-.04-.08v-.09c.4-.55.79-1.1,1.19-1.64,1.33-1.79,2.66-3.59,3.99-5.38.36-.49.71-.98,1.07-1.47.08-.11.17-.21.26-.31h0c.07.07.15.14.21.23.53.71,1.06,1.43,1.58,2.14.06.08.14.16.21.23.02.02.05.04.07.05v2.28s-.05.04-.07.06c-.57.57-1.14,1.15-1.71,1.72-.03.02-.06.04-.09.06-.35,0-.69,0-1.04.02,0,0-.03,0-.04,0h.04c.25.1.51.2.76.29-.16.16-.31.32-.47.48-.29.27-.59.53-.87.81-.62.64-1.31,1.22-1.85,1.94-.41.41-.81.82-1.22,1.23l.02.02Z"/>
        <path class="cls-4" d="m10.62,36.85h0c1.42-.24,2.84-.49,4.26-.73h0v5.97c0,.13,0,.25-.01.38h-.04c-.19-.24-.38-.47-.56-.72-1.17-1.57-2.34-3.15-3.51-4.73-.04-.06-.08-.12-.13-.18h-.01Z"/>
        <path class="cls-1" d="m17.04,45.39v.09c-.08.07-.18.13-.25.22-.57.76-1.14,1.53-1.71,2.29-.06.08-.14.15-.21.22v-5.51c.14.03.18.14.24.21.56.75,1.12,1.51,1.69,2.27.06.09.16.15.25.22h-.01Z"/>
        <path class="cls-1" d="m23.55,36.56h0c-.17-.21-.35-.42-.52-.64-.26-.34-.5-.68-.75-1.03.1-.06.2-.12.29-.18.06,0,.12.02.18.03,0,.03,0,.07,0,.08.46.31.92.62,1.4.94.3-.4.58-.78.86-1.16.05-.07.08-.14.12-.21h0l.06-.06h.08c.13-.02.25-.04.38-.06h0v2.46c-.53-.35-1-.65-1.48-.96-.21.28-.4.53-.59.78h-.03Z"/>
        <path class="cls-6" d="m14.86,48.39h-.04v-.06s.03.04.04.06Z"/>
        <path class="cls-6" d="m14.82,42.47h.04s-.01.03-.02.05c0-.02-.02-.03-.02-.05Z"/>
        <path class="cls-6" d="m14.88,36.05s.04.04.06.05h-.06v-.07.02Z"/>
        <path class="cls-4" d="m21.69,51.76c.05.07.11.14.16.22.04.05.08.1.12.15.06.09.13.19.19.28.06.07.11.14.17.21v.02c.23.32.45.65.68.97.17.23.35.46.52.69.04.06.08.12.12.18,0,.04,0,.07,0,.11-.34-.1-.69-.19-1.03-.3-.49-.15-.97-.32-1.45-.47-.47-.15-.93-.3-1.4-.45-.46-.15-.91-.29-1.37-.44-.51-.16-1.01-.32-1.52-.48-.51-.16-1.01-.32-1.52-.49.29-.31.57-.62.86-.92.87-.89,1.74-1.77,2.62-2.66.06-.07.15-.12.22-.17.12.15.23.31.35.46v.02c.06.06.11.13.17.19h0c.07.11.13.2.2.3v.02c.06.08.12.16.18.23v.02c.06.08.12.16.18.23v.02c.08.11.16.22.24.33.1.13.19.26.29.39.05.05.1.11.15.16h0c.06.09.12.17.18.25h0c.07.11.13.2.2.3v.02c.06.08.12.16.18.23v.02c.08.11.16.22.24.34l.08.02Z"/>
        <path class="cls-4" d="m28.31,60.73s-.05-.08-.08-.12c.04-.06.11-.12.12-.19.18-1.23.35-2.46.52-3.69.02-.16.04-.31.06-.47h0s.04,0,.06,0c2.47.78,4.93,1.57,7.4,2.35.07.02.14.05.26.1-.12.04-.18.07-.24.09-1.92.61-3.84,1.23-5.76,1.84-.61.19-1.23.38-1.84.57h-.09c-.13-.17-.27-.33-.4-.5h0Z"/>
        <path class="cls-1" d="m25.1,55.04c.17.05.35.1.52.16v1.43c0,.12,0,.23-.02.35h0s-.11-.09-.16-.15c-.47-.63-.95-1.27-1.42-1.91-.05-.07-.07-.16-.11-.25.21.07.43.13.64.2.19.06.37.12.56.18h-.01Z"/>
        <path class="cls-6" d="m23.71,54.55s.04.04.06.07c-.02-.02-.04-.04-.06-.07Z"/>
        <path class="cls-6" d="m23.65,54.57s0-.07,0-.11c.02,0,.04.02.06.02v.07s-.04,0-.06,0h0Z"/>
        <path class="cls-6" d="m27.47,69.04c-.08-.04-.15-.08-.09-.19.03.06.06.13.09.19Z"/>
        <path class="cls-6" d="m34.65,74.08c-.05.07-.09.07-.13,0,.05-.07.09-.06.13,0Z"/>
        <path class="cls-2" d="m32.29,72.71l-.04-.04s.03.02.04.04Z"/>
        <path class="cls-1" d="m34.21,15.65c-.05-.1-.09-.21-.15-.3-.37-.5-.74-1-1.11-1.5-.04-.05-.07-.1-.09-.18,1.26.36,2.51.76,3.82,1.18-.61.2-1.15.37-1.69.54-.24.08-.48.17-.71.26h-.07Z"/>
        <path class="cls-6" d="m57.48,29.25v-.19h.06s.04.09.06.13c-.04.02-.07.04-.11.06h0Z"/>
        <path class="cls-6" d="m57.55,26.06s-.01.05-.02.07h-.06v-.19s.05.07.07.11h0Z"/>
        <path class="cls-4" d="m49.82,36.44c.83,1.04,1.66,2.08,2.49,3.12-.18.05-.36.1-.6.16.46.31.88.59,1.29.87.02,0,.06,0,.08,0v.04h.04s-.02-.03-.04-.04c-.18-.24-.37-.48-.54-.73-.06-.09-.11-.19-.16-.29.56-.09,1.12-.19,1.68-.29,1.14-.2,2.28-.4,3.41-.61v2.42s0,.07-.01.1h0c-.19.05-.39.09-.58.15-3.35,1.07-6.7,2.13-10.04,3.2,0-.25-.04-.5-.04-.76v-2.79c0-.13,0-.25-.02-.38h0v-.03s.08-.02.12-.03c1.56-.28,3.13-.56,4.69-.84,0-.02.01-.05.02-.07-.93-.59-1.86-1.17-2.8-1.76.29-.4.58-.78.86-1.16.06-.08.1-.18.14-.27h.01Z"/>
        <path class="cls-1" d="m37.32,32.24c-.08-.06-.16-.13-.24-.18-.41-.2-.82-.39-1.23-.59-.07-.04-.15-.08-.2-.11.75-.76,1.5-1.51,2.27-2.27.49.89.99,1.81,1.52,2.76-.25.05-.47.09-.7.13-.42.08-.84.17-1.27.25h-.15,0Z"/>
        <path class="cls-1" d="m34.14,32.81c-.47.07-.94.14-1.41.22-.15.02-.31.05-.51.08.16-1.05.31-2.07.47-3.14.98.47,1.92.91,2.9,1.38-.31.32-.59.6-.86.89-.16.17-.31.34-.46.52-.04.02-.08.04-.12.05h-.01Z"/>
        <path class="cls-7" d="m40.35,33.64c-.07-.16-.13-.33-.21-.49-.22-.42-.45-.83-.7-1.29,1.06-.18,2.09-.35,3.15-.53,0,.56-.18,1.07-.2,1.6-.03.54-.13,1.07-.2,1.6h0c-.1-.06-.19-.13-.29-.18-.47-.23-.95-.45-1.42-.68-.04,0-.08-.02-.13-.04h0Z"/>
        <path class="cls-4" d="m31.87,35.12c-.43.44-.85.88-1.31,1.36-.54-.95-1.02-1.88-1.51-2.81.6-.1,1.2-.19,1.8-.29.25-.04.51-.1.76-.14.18-.03.37-.04.57-.06-.07.59-.13,1.13-.19,1.67,0,.05,0,.1-.02.16-.04.04-.07.08-.11.12h.01Z"/>
        <path class="cls-4" d="m25.6,39.17c0-.66,0-1.33,0-1.99v-.41c.07.03.12.04.16.06.86.53,1.72,1.07,2.58,1.61.05.03.09.08.14.12h0c-.6.62-1.21,1.24-1.82,1.86-.04.04-.1.07-.16.1-.3-.39-.59-.78-.89-1.17v-.12s0-.04-.02-.06Z"/>
        <path class="cls-1" d="m43.99,41.03c.62-.1,1.24-.21,1.86-.3.32-.05.63-.09.95-.13h0c-.54.73-1.09,1.46-1.63,2.18-.08.11-.16.22-.27.35-.05-.1-.09-.17-.12-.24-.22-.54-.44-1.07-.66-1.61-.04-.09-.08-.17-.13-.25h0Z"/>
        <path class="cls-1" d="m41.01,60.09c-.11-.03-.23-.04-.34-.08-1.22-.39-2.44-.78-3.65-1.17-.08-.02-.15-.06-.3-.11.55-.18,1.04-.33,1.52-.49.38-.12.76-.25,1.14-.38h.03c.05.08.08.17.14.24.48.66.97,1.33,1.46,1.99Z"/>
        <path class="cls-3" d="m43.1,45.72s-.04.06-.07.09v-.09h.07Z"/>
        <path class="cls-5" d="m41.1,60.22s.02-.05.02-.07c.03.02.05.05.08.07h-.1Z"/>
        <path class="cls-3" d="m46.83,34s-.03.07-.05.1c0-.03.02-.07.03-.1h.02Z"/>
        <path class="cls-1" d="m46.82,32.43s-.12-.04-.15-.09c-.34-.45-.67-.9-1-1.35-.02-.02-.02-.06-.02-.09.37-.03.75-.06,1.15-.1,0,.56.02,1.09.03,1.62h0Z"/>
        <path class="cls-2" d="m57.41,28.93c-.32-.42-.64-.85-.96-1.27.04-.09.08-.19.13-.27.27-.38.55-.75.83-1.13h.06v2.67h-.06Z"/>
        <path class="cls-4" d="m46.79,34.14c0,.61,0,1.22.02,1.83v.79c-.36-.18-.72-.35-1.08-.53-.21-.1-.42-.2-.63-.3.05-.08.09-.18.16-.25.28-.3.57-.59.85-.89.14-.15.27-.32.41-.47.07-.07.16-.12.25-.18h.02Z"/>
        <path class="cls-4" d="m27.75,31.09h-.11c.04-.07.07-.08.11,0Z"/>
        <path class="cls-3" d="m25.44,25.24h-.08c0-.07-.03-.13-.04-.2.02,0,.05-.01.07-.02l.06.21h0Z"/>
        <path class="cls-3" d="m25.38,26.59c0-.12.07-.08.13-.04-.04.01-.09.02-.13.04Z"/>
        <path class="cls-2" d="m21.87,24.86s-.04-.04-.06-.05c.02.02.04.04.06.05Z"/>
        <path class="cls-2" d="m20.54,24.22s-.04-.04-.06-.05c.02.02.04.04.06.05Z"/>
        <path class="cls-1" d="m14.82,32.89c-.66.21-1.32.42-1.98.62-.11.03-.23.05-.34.07.76-1.02,1.51-2.03,2.27-3.05.03.04.07.08.1.12,0,.58,0,1.15.01,1.73,0,.13,0,.25.01.38,0,.03,0,.06-.01.09h0s-.04.03-.07.05h0Z"/>
        <path class="cls-4" d="m26.51,40.56c.35.46.7.92,1.05,1.39.23.3.46.61.68.92.06.08.11.17.2.3-.98.04-1.9.07-2.83.11,0-.56,0-1.12,0-1.67,0-.03,0-.05.02-.08v-.05c.3-.3.59-.6.89-.9v-.02Z"/>
        <path class="cls-1" d="m23.84,43.3c.59,0,1.19-.02,1.78-.03v.99c-.09-.02-.17-.04-.26-.06-.1-.03-.21-.07-.31-.1-.05,0-.09-.02-.14-.03-.1-.03-.2-.07-.31-.1-.07-.02-.13-.03-.2-.05-.08-.03-.17-.05-.25-.08l-.27-.08-.12-.03s-.09-.03-.13-.04c-.02,0-.04-.02-.06,0-.07-.16.13-.2.15-.32.03-.02.06-.04.09-.06h.03Z"/>
        <path class="cls-3" d="m22.71,43.38v.03s-.03,0-.04,0c0,0,.03,0,.04,0h0Z"/>
        <path class="cls-3" d="m25.61,41.6s-.04,0-.05-.02c.02-.02.05-.04.07-.06,0,.03,0,.05-.02.08Z"/>
        <path class="cls-6" d="m14.86,30.65s-.07-.08-.1-.12c.04-.04.07-.08.11-.12,0,.08,0,.16-.01.24Z"/>
        <path class="cls-3" d="m46.91,40.43v.11s-.08.02-.12.03c0-.05,0-.1.02-.15h.1Z"/>
        <path class="cls-4" d="m46.91,40.43h-.09v-3.31c0-.1.02-.21.04-.31.64.35,1.28.7,1.95,1.07-.64.87-1.27,1.71-1.89,2.56h-.01Z"/>
      </g>
    </g>
  </g>
</svg>